{"accessors" : [{"bufferView" : 0, "byteOffset" : 0, "componentType" : 5123, "count" : 18012, "type" : "SCALAR", "max" : [18011], "min" : [0]}, {"bufferView" : 1, "byteOffset" : 0, "componentType" : 5126, "count" : 18012, "type" : "VEC3", "max" : [236.635009765625, 68.04000091552734, 1.1368683772161603E-13], "min" : [-222.35499572753906, 0, -29], "name" : "POSITION"}, {"bufferView" : 1, "byteOffset" : 12, "componentType" : 5126, "count" : 18012, "type" : "VEC2", "max" : [466.1300048828125, 28], "min" : [0, -68.04000091552734], "name" : "TEXCOORD_0"}, {"bufferView" : 1, "byteOffset" : 20, "componentType" : 5126, "count" : 18012, "type" : "VEC3", "max" : [1.0000042915344238, 1.0000044107437134, 0.9999394416809082], "min" : [-1.0000044107437134, -1.0000044107437134, -0.9999401569366455], "name" : "NORMAL"}], "asset" : {"generator" : "Aspose.3D 22.7", "version" : "2.0"}, "buffers" : [{"uri" : "data:application/octet-stream;base64,", "byteLength" : 612416}], "bufferViews" : [{"buffer" : 0, "byteOffset" : 0, "byteLength" : 36024, "target" : 34963}, {"buffer" : 0, "byteOffset" : 36028, "byteLength" : 576384, "byteStride" : 32, "target" : 34962}], "meshes" : [{"primitives" : [{"attributes" : {"POSITION" : 1, "TEXCOORD_0" : 2, "NORMAL" : 3}, "indices" : 0, "mode" : 4}], "name" : ""}], "nodes" : [{"mesh" : 0, "name" : ""}], "scene" : 0, "scenes" : [{"nodes" : [0]}]}